<?xml version="1.0" encoding="UTF-8" standalone="no"?>
<svg
   xmlns:dc="http://purl.org/dc/elements/1.1/"
   xmlns:cc="http://creativecommons.org/ns#"
   xmlns:rdf="http://www.w3.org/1999/02/22-rdf-syntax-ns#"
   xmlns:svg="http://www.w3.org/2000/svg"
   xmlns="http://www.w3.org/2000/svg"
   xmlns:sodipodi="http://sodipodi.sourceforge.net/DTD/sodipodi-0.dtd"
   xmlns:inkscape="http://www.inkscape.org/namespaces/inkscape"
   width="243.07382mm"
   height="55.076218mm"
   viewBox="0 0 243.07382 55.076218"
   version="1.1"
   id="svg8"
   inkscape:version="1.0.2 (1.0.2+r75+1)"
   sodipodi:docname="logo.svg">
  <defs
     id="defs2" />
  <sodipodi:namedview
     id="base"
     pagecolor="#ffffff"
     bordercolor="#666666"
     borderopacity="1.0"
     inkscape:pageopacity="0.0"
     inkscape:pageshadow="2"
     inkscape:zoom="0.33491379"
     inkscape:cx="507.67712"
     inkscape:cy="-18.157195"
     inkscape:document-units="mm"
     inkscape:current-layer="layer1"
     inkscape:document-rotation="0"
     showgrid="false"
     inkscape:window-width="1366"
     inkscape:window-height="719"
     inkscape:window-x="0"
     inkscape:window-y="0"
     inkscape:window-maximized="1" />
  <metadata
     id="metadata5">
    <rdf:RDF>
      <cc:Work
         rdf:about="">
        <dc:format>image/svg+xml</dc:format>
        <dc:type
           rdf:resource="http://purl.org/dc/dcmitype/StillImage" />
        <dc:title></dc:title>
      </cc:Work>
    </rdf:RDF>
  </metadata>
  <g
     inkscape:label="Lapis 1"
     inkscape:groupmode="layer"
     id="layer1"
     transform="translate(28.489571,-153.76076)">
    <g
       id="g28173"
       inkscape:export-xdpi="96"
       inkscape:export-ydpi="96"
       transform="matrix(0.04836356,0,0,0.04836356,46.426194,-31.942169)"
       style="fill:#8fd9a8;fill-opacity:1;stroke-width:5.47072">
      <g
         id="g28095"
         transform="matrix(0.30138799,0,0,0.30138799,-1021.0465,3831.172)"
         style="stroke-width:18.1518"
         inkscape:export-xdpi="96"
         inkscape:export-ydpi="96">
        <g
           id="g94"
           transform="matrix(8.1366229,0,0,8.1366229,-1751.7877,100.73288)"
           style="fill:#28b5b5;fill-opacity:1;stroke-width:2.97448">
          <path
             d="m 485.18359,174.92187 c 0.3125,-0.65234 0.55078,-1.33593 0.71485,-2.04296 5.51562,-23.79688 -5.69922,-39.77735 -15.35938,-47.34766 -2.1914,-17.84766 -19.01562,-29.265625 -32.78515,-34.777344 -1.40235,-16.8125 -7.78516,-30.464844 -19.03125,-40.65625 -18.40625,-16.675781 -44.77735,-18.925781 -57.67188,-18.925781 -0.13281,0 -0.26172,0 -0.39453,0 -12.5625,-21.472656 -41.30859,-22.464844 -58.07031,-19.351563 -9.83203,-3.359374 -19.7461,-6.03125 -29.5,-7.957031 -5.4336,-1.070312 -10.71875,2.460938 -11.79297,7.902344 -1.07422,5.4375 2.46484,10.71875 7.90625,11.792969 9.68359,1.914062 19.56641,4.644531 29.35937,8.117187 1.81641,0.648438 3.77735,0.753907 5.65235,0.3125 0.33594,-0.07813 33.46484,-7.609375 40.73047,12.839844 1.54297,4.332031 5.84765,7.058594 10.42578,6.628906 0.3164,-0.03125 31.93359,-2.808593 49.93359,13.574219 6.33203,5.765625 10.24219,13.203125 11.83985,22.566406 -13.54297,0.648438 -34.66797,5.40625 -45.66407,27.179684 -2.5,4.94922 -0.51953,10.98438 4.42969,13.48828 1.45313,0.73047 3,1.07813 4.51953,1.07813 3.66797,0 7.20313,-2.01562 8.96875,-5.51172 9.25781,-18.32031 32.26172,-16.48047 36.4375,-15.98047 3.71094,1.21875 25.72266,9.06641 24.83594,22.51953 -0.26172,3.98438 1.86328,7.7461 5.41406,9.57813 0.0352,0.0156 3.59766,2.01953 6.6875,6.22656 4.0586,5.52344 5.39063,12.30859 3.97656,20.19141 l -0.67578,0.89843 c -15.58203,1.71094 -39.01562,11.51563 -42.21484,40.5 -0.60547,5.51172 3.36719,10.47266 8.87891,11.08204 0.375,0.0391 0.74609,0.0586 1.11328,0.0586 5.05078,0 9.39843,-3.80078 9.96484,-8.9375 2.02734,-18.36719 17.80078,-22.01953 24.60156,-22.73828 43.98828,32.26562 12.9375,107.51172 10.88282,112.33594 -10.89063,20.82031 -24.5586,31.47265 -41.69141,32.44531 -7.34375,-6.13672 -26.57031,-19.78125 -60.17188,-27.83203 -5.39453,-1.29297 -10.8125,2.03125 -12.10546,7.42187 -1.28907,5.39453 2.03125,10.8125 7.42578,12.10157 28.71093,6.8789 45.10156,18.17968 51.14843,23.03906 -0.0781,2.7539 -0.4414,5.47656 -1.10937,8.12109 -7.14063,28.36719 -45.53516,43.24609 -85.58984,33.16016 -6.62891,-1.67188 -13.05079,-3.97266 -19.08594,-6.84375 -2.96875,-1.41406 -6.44141,-1.28125 -9.29688,0.35156 -2.85156,1.62891 -4.72656,4.55859 -5.01562,7.83203 -1.14844,12.99609 -0.58985,25.51563 1.65234,37.35156 l -26.35937,4.38282 c -1.125,-3.99219 -2.25391,-8.66016 -3.47657,-13.73438 -5.89062,-24.39453 -14.39843,-59.58594 -39.41406,-88.46094 20.82422,-5.07031 40.85938,-8.41797 59.74219,-9.96875 5.52734,-0.45312 9.64062,-5.30078 9.18359,-10.82422 -0.45312,-5.52734 -5.30468,-9.63281 -10.82422,-9.18359 -24.95703,2.04688 -51.71484,7.03906 -79.54296,14.83203 -25.51172,3.45313 -43.37891,2.07032 -45.37891,1.89453 -43.51563,-6.53906 -55.66797,-32.83203 -52.83984,-53.39062 0.45312,-3.29297 -0.75391,-6.59766 -3.22266,-8.82422 -2.46875,-2.22656 -5.875,-3.08594 -9.10547,-2.29687 l -7.277344,1.78125 C 84.25,252.29297 52.527344,247.37891 38.25,230.75391 c -6.203125,-7.22657 -8.578125,-15.95313 -7.253906,-26.67969 0.507812,-4.14063 -1.59375,-8.16406 -5.28125,-10.10547 -0.04297,-0.0234 -4.316406,-2.59766 -5.367188,-7.13281 -1.25,-5.40235 2.375,-11.8711 5.636719,-16.34375 1.972656,-2.70703 2.464844,-6.22266 1.3125,-9.36719 -0.07813,-0.21094 -7.480469,-21.56641 0.972656,-39.29297 4.703125,-9.86328 13.71875,-17.13672 26.800781,-21.61328 3.789063,-1.296875 6.4375,-4.652344 6.75,-8.644531 0.01172,-0.128907 1.289063,-12.859375 10.5625,-19.773438 6.40625,-4.773437 15.648438,-5.996093 27.464844,-3.632812 2.679684,0.53125 5.457034,-0.04297 7.699224,-1.601563 2.24218,-1.558594 3.7539,-3.960937 4.18359,-6.660156 0.0352,-0.21875 4.53125,-21.109375 43.69922,-21.851562 5.9414,8.113281 19.05078,29.429687 9.32422,48.527343 -2.51563,4.941407 -0.54688,10.988281 4.39062,13.503909 1.46094,0.74219 3.01563,1.09375 4.54688,1.09375 3.65625,0 7.18359,-2.003909 8.95703,-5.484378 3.61719,-7.105468 5.28125,-14.230468 5.625,-21.109374 5.41797,-2.304688 13.85547,-4.78125 20.58984,-2.777344 4.37891,1.296875 7.7461,4.476562 10.29688,9.710937 1.73828,3.570313 5.3125,5.644531 9.03515,5.644531 1.47266,0 2.97266,-0.328124 4.39063,-1.019531 4.98437,-2.425781 7.05469,-8.4375 4.625,-13.421875 C 232.19922,62.441406 224.375,55.46875 214.57813,52.558594 204.14453,49.460938 193.52734,51.4375 185.67188,54.085938 183.05078,45.125 178.92969,37.339844 175.30469,31.609375 c 4.72656,-2.058594 11.10937,-4.457031 18.96875,-6.523437 5.36328,-1.40625 8.57031,-6.898438 7.16015,-12.257813 -1.41015,-5.367187 -6.90234,-8.566406 -12.26171,-7.160156 -15.86719,4.167969 -26.73829,9.589843 -31.5586,12.28125 -40.66015,0.0078 -56.3789,17.769531 -62.296874,29.269531 -14.011718,-1.324219 -25.8125,1.578125 -35.171875,8.660156 C 49.234375,64.132812 44.765625,76.011719 42.96875,83.347656 27.542969,89.808594 16.515625,99.828125 10.144531,113.1875 c -9.246093,19.39453 -5.683593,40.26172 -3.242187,49.71094 -6.140625,9.91015 -8.199219,19.46875 -6.113282,28.46875 1.765626,7.63281 6.128907,12.9414 9.804688,16.23047 -0.464844,13.90625 3.699219,26.07422 12.421875,36.23437 21.625,25.17578 64.726563,28.69531 73.238281,29.14844 2.191406,27.99609 23.503904,55.62109 70.457034,62.57031 0.14844,0.0234 0.30078,0.043 0.45312,0.0586 0.41797,0.043 5.61719,0.55078 14.40235,0.55078 7.97656,0 18.92187,-0.42188 31.92578,-2 27.69531,26.17968 36.28515,61.70703 42.60937,87.91406 2.30469,9.53906 4.29297,17.78125 6.88672,24.13281 1.5586,3.82031 5.26563,6.24219 9.28906,6.24219 0.54688,0 1.09766,-0.043 1.65235,-0.13672 l 45.42578,-7.55859 c 2.82812,-0.47266 5.32031,-2.12891 6.84766,-4.55469 1.52734,-2.42578 1.94531,-5.39063 1.14453,-8.14453 -2.47657,-8.54297 -3.82032,-17.64063 -4.01953,-27.17969 2.94531,0.98438 5.9414,1.85547 8.96875,2.61719 24.08203,6.0625 48.60156,4.74609 69.04687,-3.71094 21.47656,-8.88281 36.00781,-24.51562 40.91797,-44.01562 0.67578,-2.69532 1.14844,-5.4375 1.42969,-8.20704 17.13672,-2.38281 37.76562,-12.58203 53.58203,-43.04687 0.0937,-0.17969 0.17969,-0.35938 0.26172,-0.54297 0.43359,-0.97266 10.66406,-24.19922 13.65625,-52.52344 3.69531,-35.0039 -5.27344,-62.60156 -26.00782,-80.52344 z m 0,0"
             id="path56"
             style="fill:#28b5b5;fill-opacity:1;stroke-width:2.97448" />
          <path
             d="m 233.51953,145.42187 c 0.10547,0.58204 2.71484,14.41797 12.3125,27.9961 2.28906,3.23828 5.09375,6.62109 8.48438,9.86328 -1.80469,10.3125 -17.57813,15.95703 -17.94922,16.08594 -5.23438,1.78515 -8.03907,7.46875 -6.27344,12.71093 1.41406,4.19141 5.32031,6.83594 9.51172,6.83594 1.0664,0 2.14844,-0.17187 3.21094,-0.53125 9.28125,-3.1289 22.76562,-10.92187 28.73046,-23.44531 7.80469,3.52344 17.21485,5.80469 28.51563,5.80469 0.71875,0 1.44922,-0.0117 2.18359,-0.0273 5.54297,-0.14453 9.92188,-4.75 9.77735,-10.29297 -0.13672,-5.45703 -4.60156,-9.78515 -10.03125,-9.78515 -0.0859,0 -0.17188,0.004 -0.25781,0.004 -40.28125,1.01172 -48.13282,-37.10937 -48.47266,-38.85937 -1.01172,-5.43359 -6.23047,-9.03516 -11.67188,-8.03516 -5.45312,0.99219 -9.0664,6.22266 -8.07031,11.67578 z m 0,0"
             id="path58"
             style="fill:#8fd9a8;fill-opacity:1;stroke-width:2.97448" />
          <path
             d="m 355.91406,233.57031 c 17.42969,-30.45703 10.54688,-54.00781 1.70703,-68.40234 -9.33984,-15.19922 -22.79687,-23.20703 -23.36328,-23.53906 -4.76953,-2.79688 -10.875,-1.20313 -13.69531,3.54687 -2.82031,4.75391 -1.24609,10.90234 3.49219,13.74609 0.10156,0.0586 10.17578,6.1836 16.80078,17.32422 8.36328,14.0625 7.5625,29.99219 -2.3711,47.35157 -2.7539,4.8125 -1.08203,10.94531 3.73047,13.69921 1.57032,0.90235 3.28516,1.32813 4.97266,1.32813 3.48828,0 6.87109,-1.8125 8.72656,-5.05469 z m 0,0"
             id="path60"
             style="fill:#8fd9a8;fill-opacity:1;stroke-width:2.97448" />
          <path
             d="m 462.31641,257.03516 c 4.51171,-3.22266 5.55859,-9.49219 2.33593,-14.00391 -3.22265,-4.51172 -9.49218,-5.55859 -14.0039,-2.33594 -9.78907,6.99219 -18.69532,9.6211 -26.47266,7.8086 -11.71875,-2.72266 -18.375,-14.75391 -18.53125,-15.03516 -2.57812,-4.87891 -8.61328,-6.76172 -13.51562,-4.20703 -4.91797,2.5664 -6.82422,8.6289 -4.25782,13.54297 0.39453,0.7539 9.09375,17.07812 26.46485,23.64062 -3.10938,12.28125 -5.08985,33.95313 13.05859,49.12891 1.87891,1.57031 4.16016,2.33984 6.43359,2.33984 2.8711,0 5.71875,-1.22656 7.70704,-3.59765 3.55468,-4.25391 2.99218,-10.58594 -1.26172,-14.14454 -11.07813,-9.26562 -7.96485,-24.46875 -5.78125,-31.35156 9.0664,-1.10937 18.3789,-5.03906 27.82422,-11.78515 z m 0,0"
             id="path62"
             style="fill:#8fd9a8;fill-opacity:1;stroke-width:2.97448" />
          <path
             d="m 166.76172,192.5625 c -0.69531,-5.5 -5.71875,-9.38672 -11.22266,-8.69531 -5.5,0.69531 -9.39453,5.72265 -8.69531,11.22265 1.74219,13.73828 -9.03516,23.73828 -15.41797,28.375 -16.0664,-7.95312 -34.058592,-4.92187 -34.953124,-4.76562 -5.441406,0.96094 -9.0625,6.14062 -8.125,11.58594 0.9375,5.44531 6.125,9.10546 11.574219,8.19531 0.171875,-0.0313 17.117185,-2.7461 27.257815,6.04297 5.78906,5.01953 8.58984,13.41406 8.32031,24.94922 -0.12891,5.54296 4.26172,10.14062 9.80469,10.26953 0.0781,0.004 0.15625,0.004 0.23828,0.004 5.43359,0 9.90234,-4.33984 10.03125,-9.80468 0.3164,-13.5 -2.5586,-24.60938 -8.55469,-33.17188 9.83984,-8.16797 22.42969,-23.01172 19.74219,-44.20703 z m 0,0"
             id="path64"
             style="fill:#8fd9a8;fill-opacity:1;stroke-width:2.97448" />
          <path
             d="m 72.355469,139.93359 c -1.089844,2.60938 -2.746094,4.94532 -4.835938,7.07032 -5.445312,5.55078 -12.28125,7.61328 -12.539062,7.6914 -5.3125,1.47266 -8.449219,6.95703 -7.011719,12.28906 1.207031,4.47657 5.261719,7.42579 9.683594,7.42579 0.867187,0 1.746094,-0.11329 2.625,-0.35157 0.632812,-0.17187 13.242187,-3.6914 22.980468,-14.51953 6.703126,4.97656 14.578126,7.57422 23.207028,7.57422 2.40235,0 4.85938,-0.19922 7.36719,-0.60547 11.375,-1.83203 19.89453,-7.19531 20.82813,-7.80078 4.65234,-3.01562 5.98046,-9.23047 2.96484,-13.88281 -3.01563,-4.65235 -9.23047,-5.98047 -13.88672,-2.96485 -0.0547,0.0352 -5.89844,3.66407 -13.09765,4.82813 -7.23438,1.16797 -12.945318,-0.48047 -17.652349,-5.15234 2.273438,-8.65235 2,-18.29297 -0.855469,-28.80469 -1.449218,-5.35156 -6.960937,-8.51172 -12.316406,-7.05859 -5.351562,1.45312 -8.511718,6.96484 -7.058594,12.3164 2.304688,8.5 2.242188,15.60938 -0.214843,21.50781 -0.0625,0.14453 -0.125,0.28907 -0.1875,0.4375 z m 0,0"
             id="path66"
             style="fill:#8fd9a8;fill-opacity:1;stroke-width:2.97448" />
          <path
             d="m 307.29297,54.535156 c -16.95703,-10.058594 -36.44531,-4.863281 -37.26563,-4.636718 -5.34375,1.472656 -8.48437,7 -7.01172,12.34375 1.46875,5.34375 7.00391,8.480468 12.34375,7.015624 0.11719,-0.03516 12.14844,-3.117187 21.6875,2.542969 5.67579,3.367188 9.59375,9.511719 11.65235,18.257813 1.08984,4.625 5.21094,7.742187 9.76562,7.742187 0.76172,0 1.53125,-0.08984 2.30469,-0.269531 5.39844,-1.269531 8.74609,-6.675781 7.47266,-12.070312 -3.35547,-14.261719 -10.40235,-24.667969 -20.94922,-30.925782 z m 0,0"
             id="path68"
             style="fill:#8fd9a8;fill-opacity:1;stroke-width:2.97448" />
          <path
             d="m 270.92578,243.81641 c -7.15234,12.28906 -17.48828,18.87109 -30.71484,19.5625 -10.625,0.55078 -19.38282,-2.875 -19.59766,-2.96485 -5.11719,-2.09375 -10.96094,0.34375 -13.07422,5.45313 -2.12109,5.125 0.3125,10.99609 5.4336,13.11328 1.17968,0.48828 11.36718,4.53906 24.85156,4.53906 0.82812,0 1.67187,-0.0156 2.52734,-0.0508 14.33203,-0.54297 34.28516,-6.11328 47.92969,-29.55469 2.78906,-4.78906 1.16406,-10.9375 -3.62891,-13.72656 -4.78906,-2.78906 -10.9375,-1.16406 -13.72656,3.62891 z m 0,0"
             id="path70"
             style="fill:#8fd9a8;fill-opacity:1;stroke-width:2.97448" />
        </g>
        <g
           id="g5296"
           transform="matrix(6.8833238,0,0,6.8833238,2767.8619,26.696466)"
           style="stroke-width:18.1518">
          <g
             id="freepik--Tools--inject-38"
             transform="translate(-75.409105,0.52711277)"
             style="stroke-width:18.1518">
            <path
               d="m -66.257324,289.66929 3.23418,0.72695 0.751008,-3.27125 -3.100934,-0.70272 c 0,-0.0969 0,-0.19385 0,-0.27866 a 7.1951392,7.1967524 0 0 0 -0.593536,-2.89566 l 2.519506,-2.01122 -2.095549,-2.62911 -2.422614,1.9264 a 7.2678174,7.2694469 0 0 0 -2.90712,-1.55081 v -3.1501 h -3.367428 v 3.0047 a 7.546417,7.548109 0 0 0 -3.040369,1.36909 l -2.422604,-1.93852 -2.071326,2.64123 2.422604,1.90217 a 7.2678174,7.2694469 0 0 0 -0.787345,3.19856 l -3.100939,0.71483 0.751004,3.27125 3.05249,-0.70272 a 7.4131737,7.4148359 0 0 0 1.962307,2.55643 l -1.41722,2.94412 3.028259,1.46601 1.392991,-2.90778 a 7.4737389,7.4754145 0 0 0 1.744278,0.21808 7.5706432,7.5723405 0 0 0 1.405111,-0.14539 l 1.45356,3.00471 3.02826,-1.45389 -1.417221,-2.9199 a 7.3526086,7.3542571 0 0 0 1.998647,-2.3868 z m -9.823664,-3.52568 a 3.2947439,3.2954826 0 1 1 3.294748,3.29549 3.2947439,3.2954826 0 0 1 -3.294748,-3.29549 z"
               style="fill:#8fd9a8;fill-opacity:1;stroke:none;stroke-width:2.63706;stroke-miterlimit:10"
               id="path27940" />
            <path
               d="m -285.66119,304.69365 3.31716,0.74562 0.77027,-3.35528 -3.18048,-0.72076 c 0,-0.0994 0,-0.19883 0,-0.28582 a 7.3797422,7.3815902 0 0 0 -0.60877,-2.97003 l 2.58415,-2.06287 -2.14931,-2.69664 -2.48477,1.97588 a 7.454285,7.4561517 0 0 0 -2.98171,-1.59065 v -3.23099 h -3.45383 v 3.08187 a 7.7400326,7.7419708 0 0 0 -3.11837,1.40425 l -2.48476,-1.98831 -2.12447,2.70906 2.48476,1.95104 a 7.454285,7.4561517 0 0 0 -0.80755,3.2807 l -3.18049,0.73319 0.77027,3.35527 3.1308,-0.72077 a 7.6033707,7.6052748 0 0 0 2.01266,2.62208 l -1.45358,3.01975 3.10595,1.50366 1.42873,-2.98247 a 7.6654898,7.6674093 0 0 0 1.78903,0.22369 7.7648803,7.7668247 0 0 0 1.44116,-0.14913 l 1.49086,3.08188 3.10595,-1.49123 -1.45358,-2.99489 a 7.5412517,7.5431401 0 0 0 2.04992,-2.4481 z m -10.0757,-3.61624 a 3.3792759,3.3801221 0 1 1 3.37928,3.38013 3.3792759,3.3801221 0 0 1 -3.37928,-3.38013 z"
               style="fill:#8fd9a8;fill-opacity:1;stroke:none;stroke-width:2.63706;stroke-miterlimit:10"
               id="path27942" />
            <path
               d="m -237.65904,200.08743 3.40836,0.76614 0.79145,-3.44762 -3.26793,-0.7406 c 0,-0.1021 0,-0.2043 0,-0.29368 a 7.5826461,7.5847521 0 0 0 -0.6255,-3.05178 l 2.65519,-2.11964 -2.2084,-2.77086 -2.55309,2.03025 a 7.6592385,7.6613658 0 0 0 -3.06369,-1.63441 v -3.31993 h -3.54879 v 3.16669 a 7.9528426,7.9550514 0 0 0 -3.20411,1.4429 l -2.55308,-2.04303 -2.18288,2.78362 2.55308,2.00473 a 7.6592385,7.6613658 0 0 0 -0.82975,3.371 l -3.26795,0.75337 0.79145,3.44762 3.21689,-0.74061 a 7.8124232,7.8145931 0 0 0 2.06799,2.69425 l -1.49355,3.10286 3.19136,1.54504 1.46801,-3.06455 a 7.8762503,7.8784378 0 0 0 1.83822,0.22984 7.9783735,7.9805893 0 0 0 1.48078,-0.15323 l 1.53185,3.1667 3.19135,-1.53227 -1.49355,-3.07732 a 7.7485963,7.7507483 0 0 0 2.10629,-2.51548 z m -10.35273,-3.71576 a 3.4721881,3.4731525 0 1 1 3.47219,3.47316 3.4721881,3.4731525 0 0 1 -3.47219,-3.47316 z"
               style="fill:#8fd9a8;fill-opacity:1;stroke:none;stroke-width:2.63706;stroke-miterlimit:10"
               id="path27944" />
          </g>
        </g>
        <g
           id="g27046"
           transform="translate(832.59747,2471.3115)"
           style="fill:#8fd9a8;fill-opacity:1;stroke-width:18.1518">
          <g
             id="g26989"
             style="fill:#8fd9a8;fill-opacity:1;stroke-width:18.1518">
            <g
               id="g26987"
               style="fill:#8fd9a8;fill-opacity:1;stroke-width:18.1518">
              <path
                 d="M 287.034,60.873 266.215,60.872 V 39.321 c 0,-4.934 -3.61,-9.126 -8.49,-9.856 -0.852,-0.128 -21.134,-3.074 -45.557,1.37 C 184.941,35.789 163.227,48.006 148.5,66.475 133.772,48.006 112.058,35.789 84.832,30.835 60.408,26.392 40.126,29.337 39.275,29.465 c -4.88,0.731 -8.49,4.923 -8.49,9.856 V 60.872 H 9.966 C 4.463,60.872 0,65.335 0,70.839 v 187.805 c 0,3.227 1.562,6.254 4.193,8.124 2.631,1.87 6.004,2.35 9.051,1.288 0.748,-0.259 75.431,-25.747 131.12,-0.345 2.628,1.199 5.645,1.199 8.273,0 55.533,-25.33 130.376,0.088 131.12,0.345 1.068,0.372 2.174,0.555 3.276,0.555 2.043,0 4.065,-0.628 5.775,-1.842 2.631,-1.87 4.193,-4.897 4.193,-8.124 V 70.84 C 297,65.336 292.538,60.873 287.034,60.873 Z M 19.933,245.309 V 80.805 h 10.852 v 132.726 c 0,2.896 1.267,5.646 3.458,7.539 2.191,1.893 5.105,2.742 7.969,2.319 0.55,-0.08 43.846,-6.024 75.478,15.679 -38.965,-6.663 -77.963,1.044 -97.757,6.241 z M 138.534,230.08 c -13.932,-12.588 -32.079,-21.1 -53.702,-25.034 -10.406,-1.894 -20.06,-2.446 -27.78,-2.446 -2.292,0 -4.414,0.049 -6.333,0.126 V 48.473 h -10e-4 c 19.155,-0.864 65.752,1.184 87.816,38.587 z M 158.466,87.061 c 21.985,-37.243 68.655,-39.384 87.816,-38.563 v 154.228 c -8.383,-0.338 -20.62,-0.136 -34.114,2.32 -21.623,3.934 -39.77,12.445 -53.702,25.034 z m 20.811,152.013 c 31.636,-21.716 74.955,-15.766 75.495,-15.686 2.871,0.431 5.783,-0.413 7.981,-2.305 2.198,-1.894 3.462,-4.65 3.462,-7.552 V 80.806 h 10.852 v 164.503 c -19.8,-5.199 -58.814,-12.909 -97.79,-6.235 z"
                 id="path26985"
                 style="fill:#f1c684;fill-opacity:1;stroke-width:18.1518" />
            </g>
          </g>
          <g
             id="g26991"
             style="fill:#8fd9a8;fill-opacity:1;stroke-width:18.1518" />
          <g
             id="g26993"
             style="fill:#8fd9a8;fill-opacity:1;stroke-width:18.1518" />
          <g
             id="g26995"
             style="fill:#8fd9a8;fill-opacity:1;stroke-width:18.1518" />
          <g
             id="g26997"
             style="fill:#8fd9a8;fill-opacity:1;stroke-width:18.1518" />
          <g
             id="g26999"
             style="fill:#8fd9a8;fill-opacity:1;stroke-width:18.1518" />
          <g
             id="g27001"
             style="fill:#8fd9a8;fill-opacity:1;stroke-width:18.1518" />
          <g
             id="g27003"
             style="fill:#8fd9a8;fill-opacity:1;stroke-width:18.1518" />
          <g
             id="g27005"
             style="fill:#8fd9a8;fill-opacity:1;stroke-width:18.1518" />
          <g
             id="g27007"
             style="fill:#8fd9a8;fill-opacity:1;stroke-width:18.1518" />
          <g
             id="g27009"
             style="fill:#8fd9a8;fill-opacity:1;stroke-width:18.1518" />
          <g
             id="g27011"
             style="fill:#8fd9a8;fill-opacity:1;stroke-width:18.1518" />
          <g
             id="g27013"
             style="fill:#8fd9a8;fill-opacity:1;stroke-width:18.1518" />
          <g
             id="g27015"
             style="fill:#8fd9a8;fill-opacity:1;stroke-width:18.1518" />
          <g
             id="g27017"
             style="fill:#8fd9a8;fill-opacity:1;stroke-width:18.1518" />
          <g
             id="g27019"
             style="fill:#8fd9a8;fill-opacity:1;stroke-width:18.1518" />
        </g>
        <g
           id="g27115"
           transform="matrix(0.99071342,0,0,0.99071342,-406.14847,1171.0147)"
           style="fill:#8fd9a8;fill-opacity:1;stroke-width:18.3219">
          <g
             id="g27056"
             style="fill:#8fd9a8;fill-opacity:1;stroke-width:18.3219">
            <g
               id="g27054"
               style="fill:#8fd9a8;fill-opacity:1;stroke-width:18.3219">
              <path
                 d="m 273.587,214.965 c 49.11,-49.111 49.109,-129.021 0,-178.132 -49.111,-49.111 -129.02,-49.111 -178.13,0 C 53.793,78.497 47.483,140.462 76.51,188.85 c 0,0 2.085,3.498 -0.731,6.312 -16.065,16.064 -64.263,64.263 -64.263,64.263 -12.791,12.79 -15.836,30.675 -4.493,42.02 l 1.953,1.951 c 11.343,11.345 29.229,8.301 42.019,-4.49 0,0 48.096,-48.097 64.128,-64.128 2.951,-2.951 6.448,-0.866 6.448,-0.866 48.387,29.026 110.352,22.717 152.016,-18.947 z M 118.711,191.71 C 82.423,155.422 82.424,96.378 118.712,60.09 c 36.288,-36.287 95.332,-36.288 131.619,0 36.288,36.287 36.288,95.332 0,131.62 -36.288,36.286 -95.331,36.286 -131.62,0 z"
                 id="path27048"
                 style="fill:#f1c684;fill-opacity:1;stroke-width:18.3219" />
              <g
                 id="g27052"
                 style="fill:#8fd9a8;fill-opacity:1;stroke-width:18.3219">
                <path
                   d="m 126.75,118.424 c -1.689,0 -3.406,-0.332 -5.061,-1.031 -6.611,-2.798 -9.704,-10.426 -6.906,-17.038 17.586,-41.559 65.703,-61.062 107.261,-43.476 6.611,2.798 9.704,10.426 6.906,17.038 -2.799,6.612 -10.425,9.703 -17.039,6.906 -28.354,-11.998 -61.186,1.309 -73.183,29.663 -2.099,4.959 -6.913,7.938 -11.978,7.938 z"
                   id="path27050"
                   style="fill:#f1c684;fill-opacity:1;stroke-width:18.3219" />
              </g>
            </g>
          </g>
          <g
             id="g27058"
             style="fill:#8fd9a8;fill-opacity:1;stroke-width:18.3219" />
          <g
             id="g27060"
             style="fill:#8fd9a8;fill-opacity:1;stroke-width:18.3219" />
          <g
             id="g27062"
             style="fill:#8fd9a8;fill-opacity:1;stroke-width:18.3219" />
          <g
             id="g27064"
             style="fill:#8fd9a8;fill-opacity:1;stroke-width:18.3219" />
          <g
             id="g27066"
             style="fill:#8fd9a8;fill-opacity:1;stroke-width:18.3219" />
          <g
             id="g27068"
             style="fill:#8fd9a8;fill-opacity:1;stroke-width:18.3219" />
          <g
             id="g27070"
             style="fill:#8fd9a8;fill-opacity:1;stroke-width:18.3219" />
          <g
             id="g27072"
             style="fill:#8fd9a8;fill-opacity:1;stroke-width:18.3219" />
          <g
             id="g27074"
             style="fill:#8fd9a8;fill-opacity:1;stroke-width:18.3219" />
          <g
             id="g27076"
             style="fill:#8fd9a8;fill-opacity:1;stroke-width:18.3219" />
          <g
             id="g27078"
             style="fill:#8fd9a8;fill-opacity:1;stroke-width:18.3219" />
          <g
             id="g27080"
             style="fill:#8fd9a8;fill-opacity:1;stroke-width:18.3219" />
          <g
             id="g27082"
             style="fill:#8fd9a8;fill-opacity:1;stroke-width:18.3219" />
          <g
             id="g27084"
             style="fill:#8fd9a8;fill-opacity:1;stroke-width:18.3219" />
          <g
             id="g27086"
             style="fill:#8fd9a8;fill-opacity:1;stroke-width:18.3219" />
        </g>
        <g
           id="g27950"
           style="fill:#8fd9a8;fill-opacity:1;stroke-width:18.1518">
          <g
             id="g27948"
             style="fill:#8fd9a8;fill-opacity:1;stroke-width:18.1518">
            <path
               d="M 287.034,60.873 266.215,60.872 V 39.321 c 0,-4.934 -3.61,-9.126 -8.49,-9.856 -0.852,-0.128 -21.134,-3.074 -45.557,1.37 C 184.941,35.789 163.227,48.006 148.5,66.475 133.772,48.006 112.058,35.789 84.832,30.835 60.408,26.392 40.126,29.337 39.275,29.465 c -4.88,0.731 -8.49,4.923 -8.49,9.856 V 60.872 H 9.966 C 4.463,60.872 0,65.335 0,70.839 v 187.805 c 0,3.227 1.562,6.254 4.193,8.124 2.631,1.87 6.004,2.35 9.051,1.288 0.748,-0.259 75.431,-25.747 131.12,-0.345 2.628,1.199 5.645,1.199 8.273,0 55.533,-25.33 130.376,0.088 131.12,0.345 1.068,0.372 2.174,0.555 3.276,0.555 2.043,0 4.065,-0.628 5.775,-1.842 2.631,-1.87 4.193,-4.897 4.193,-8.124 V 70.84 C 297,65.336 292.538,60.873 287.034,60.873 Z M 19.933,245.309 V 80.805 h 10.852 v 132.726 c 0,2.896 1.267,5.646 3.458,7.539 2.191,1.893 5.105,2.742 7.969,2.319 0.55,-0.08 43.846,-6.024 75.478,15.679 -38.965,-6.663 -77.963,1.044 -97.757,6.241 z M 138.534,230.08 c -13.932,-12.588 -32.079,-21.1 -53.702,-25.034 -10.406,-1.894 -20.06,-2.446 -27.78,-2.446 -2.292,0 -4.414,0.049 -6.333,0.126 V 48.473 h -10e-4 c 19.155,-0.864 65.752,1.184 87.816,38.587 z M 158.466,87.061 c 21.985,-37.243 68.655,-39.384 87.816,-38.563 v 154.228 c -8.383,-0.338 -20.62,-0.136 -34.114,2.32 -21.623,3.934 -39.77,12.445 -53.702,25.034 z m 20.811,152.013 c 31.636,-21.716 74.955,-15.766 75.495,-15.686 2.871,0.431 5.783,-0.413 7.981,-2.305 2.198,-1.894 3.462,-4.65 3.462,-7.552 V 80.806 h 10.852 v 164.503 c -19.8,-5.199 -58.814,-12.909 -97.79,-6.235 z"
               id="path27946"
               style="fill:#f1c684;fill-opacity:1;stroke-width:18.1518" />
          </g>
        </g>
      </g>
      <text
         xml:space="preserve"
         style="font-style:normal;font-variant:normal;font-weight:normal;font-stretch:normal;font-size:1120.03px;line-height:1.25;font-family:'Bebas Neue';-inkscape-font-specification:'Bebas Neue';letter-spacing:0px;word-spacing:0px;fill:#00adb5;fill-opacity:1;stroke-width:37.6566"
         x="-214.38231"
         y="4693.3608"
         id="text28099"
         inkscape:export-xdpi="96"
         inkscape:export-ydpi="96"><tspan
           sodipodi:role="line"
           id="tspan28097"
           x="-214.38231"
           y="4693.3608"
           style="font-style:normal;font-variant:normal;font-weight:normal;font-stretch:normal;font-family:'Bebas Neue';-inkscape-font-specification:'Bebas Neue';fill:#00adb5;fill-opacity:1;stroke-width:37.6566">subhitech</tspan></text>
      <text
         xml:space="preserve"
         style="font-style:normal;font-variant:normal;font-weight:normal;font-stretch:normal;font-size:236.734px;line-height:1.25;font-family:'Bebas Neue';-inkscape-font-specification:'Bebas Neue';letter-spacing:0px;word-spacing:0px;fill:#8fd9a8;fill-opacity:1;stroke-width:37.6566"
         x="-190.49196"
         y="4976.1567"
         id="text28107"
         inkscape:export-xdpi="96"
         inkscape:export-ydpi="96"><tspan
           sodipodi:role="line"
           id="tspan28105"
           x="-190.49196"
           y="4976.1567"
           style="font-style:normal;font-variant:normal;font-weight:normal;font-stretch:normal;font-family:'Bebas Neue';-inkscape-font-specification:'Bebas Neue';fill:#8fd9a8;fill-opacity:1;stroke-width:37.6566">learning - analyzing - realisation -  evaluating</tspan></text>
    </g>
  </g>
</svg>
